<svg xmlns="http://www.w3.org/2000/svg" width="521.787" height="112.95" viewBox="0 0 521.787 112.95"><path fill="#194668" d="M473.035 73.301c-16.522 8.138-12.79 24.965-6.604 39.119.597 1.361 5.307-.207 4.829-1.295-5.403-12.365-10.615-29.396 4.632-36.906 2.892-1.424-1.571-1.551-2.857-.918M58.739 68.551H37.651V21.295h10.417V9.238H8.867v12.057h10.21v47.256H8.867v12.058h63.777V46.488H58.739v22.063"/><g fill="#194668"><path d="M93.887 25.349c2.394 0 4.438-.844 6.131-2.531 1.693-1.688 2.54-3.727 2.54-6.114s-.839-4.433-2.514-6.138c-1.677-1.706-3.729-2.559-6.157-2.559-2.395 0-4.438.854-6.131 2.559-1.693 1.706-2.541 3.751-2.541 6.138 0 2.354.854 4.383 2.566 6.088 1.71 1.705 3.745 2.557 6.106 2.557M101.634 30.941H78.237v11.442h7.542v26.784h-7.542v11.441h30.785V69.167h-7.388V30.941"/></g><path fill="#194668" d="M135.189 11.752l-15.854 11.391v7.799h-6.312v11.442h6.312V68.38c0 8.631 4.344 12.947 13.033 12.947 3.9 0 7.883-.838 11.955-2.514v-10.98c-1.847.688-3.507 1.025-4.976 1.025-1.779 0-2.916-.332-3.413-1-.496-.67-.745-1.98-.745-3.934v-21.54h9.134V30.941h-9.134V11.752M171.362 11.752l-15.855 11.391v7.799h-6.311v11.442h6.311V68.38c0 8.631 4.345 12.947 13.033 12.947 3.9 0 7.885-.838 11.955-2.514v-10.98c-1.846.688-3.506 1.025-4.977 1.025-1.778 0-2.916-.332-3.411-1-.498-.67-.745-1.98-.745-3.934v-21.54h9.133V30.941h-9.133V11.752M210.87 9.238h-23.654V20.68h7.8v48.486h-7.8v11.441h30.786v-11.44h-7.132V9.238M240.529 50.234c.956-6.671 4.342-10.006 10.159-10.006 3.112 0 5.569.975 7.369 2.925 1.8 1.95 2.884 4.31 3.252 7.081h-20.78zm34.325-5.49c-1.607-4.275-4.481-7.851-8.621-10.724s-9.046-4.31-14.726-4.31c-7.835 0-14.283 2.565-19.345 7.696-5.061 5.131-7.592 11.528-7.592 19.19 0 7.525 2.454 13.597 7.362 18.214 4.909 4.616 11.74 6.928 20.498 6.928 10.98 0 19.052-4.055 24.216-12.161l-12.312-3.951c-3.867 3.899-7.697 5.851-11.496 5.851-2.908 0-5.669-.938-8.285-2.822-2.616-1.879-4.046-5.079-4.285-9.594h36.995c.004-5.269-.801-10.041-2.409-14.317M323.942 42.323c-2.818-1.899-6.863-4.022-12.137-6.372-5.479-2.416-8.783-4.282-9.912-5.6-1.129-1.315-1.693-2.71-1.693-4.181 0-1.711.684-3.095 2.054-4.156 1.366-1.061 3.042-1.591 5.027-1.591 2.565 0 4.815.916 6.747 2.745 1.933 1.831 3.087 4.421 3.463 7.773h12.059V9.238h-12.059v5.926c-3.112-4.43-7.51-6.645-13.188-6.645-4.961 0-9.39 1.713-13.287 5.14-3.9 3.426-5.852 8.257-5.852 14.494 0 5.174 1.477 9.286 4.424 12.336 2.949 3.049 8.555 6.562 16.811 10.535 3.904 1.902 6.594 3.596 8.062 5.085 1.473 1.487 2.207 3.327 2.207 5.515 0 2.056-.754 3.842-2.258 5.361-1.506 1.523-3.354 2.284-5.541 2.284-2.807 0-5.305-1.054-7.492-3.156-2.188-2.104-3.354-5.378-3.486-9.826h-12.109v24.321h12.109v-6.08c3.385 4.637 8.209 6.953 14.469 6.953 5.607 0 10.469-1.779 14.572-5.341s6.155-8.867 6.155-15.921c0-3.97-.819-7.47-2.46-10.501-1.638-3.028-3.866-5.493-6.685-7.395"/><g fill="#194668"><path d="M356.642 25.349c2.396 0 4.438-.844 6.131-2.531 1.692-1.688 2.539-3.727 2.539-6.114s-.838-4.433-2.514-6.138c-1.678-1.706-3.729-2.559-6.156-2.559-2.396 0-4.438.854-6.133 2.559-1.691 1.706-2.54 3.751-2.54 6.138 0 2.354.854 4.383 2.566 6.088 1.71 1.705 3.745 2.557 6.107 2.557M364.39 30.941h-23.396v11.442h7.543v26.784h-7.543v11.441h30.783V69.167h-7.387V30.941"/></g><path fill="#194668" d="M413.541 51.104c-3.045-1.06-7.629-2.12-13.751-3.181-3.865-.683-6.27-1.272-7.209-1.769-.939-.495-1.41-1.222-1.41-2.181 0-2.53 2.291-3.797 6.875-3.797 6.226 0 9.853 1.729 10.878 5.183h11.339V30.941h-11.339v1.719c-3.896-1.658-8.09-2.488-12.571-2.488-5.541 0-9.985 1.411-13.34 4.231-3.353 2.82-5.027 6.283-5.027 10.385 0 4.375 1.778 7.889 5.336 10.539 3.56 2.65 9.356 4.626 17.396 5.933 3.897.654 6.518 1.338 7.853 2.057 1.333.719 2 1.729 2 3.027 0 1.402-.729 2.559-2.183 3.463-1.453.908-3.479 1.361-6.08 1.361-3.01 0-5.541-.693-7.593-2.078-2.053-1.387-3.131-3.242-3.232-5.568h-11.598v17.087h11.598v-2.487c2.188 2.41 6.242 3.617 12.159 3.617 6.362 0 11.28-1.549 14.751-4.645 3.474-3.098 5.208-7.072 5.208-11.93 0-3.42-.915-6.354-2.742-8.8-1.838-2.445-4.273-4.198-7.318-5.26"/><path fill="#CE3E4E" d="M476.839 6.919c-21.979 0-39.799 17.819-39.799 39.798s17.817 39.797 39.799 39.797c21.979 0 39.798-17.818 39.798-39.797S498.818 6.919 476.839 6.919"/><g fill="#FFF"><path d="M471.424 65.465l13.41-10.178 13.712 9.76-4.938-16.785 12.916-10.898-4.923-.059-32.099.435-6.882.293 13.233 10.498-4.429 16.934M484.384 17.919a8.838 8.838 0 0 0-8.839 8.84 8.836 8.836 0 0 0 8.839 8.837c4.88 0 8.84-3.956 8.84-8.837a8.84 8.84 0 0 0-8.84-8.84"/></g></svg>